HIERARCHY
ROOT Hips
{
	OFFSET	0.00	0.00	0.00
	CHANNELS 6 Xposition Yposition Zposition Zrotation Xrotation Yrotation
	JOINT LeftUpLeg
	{
		OFFSET	 0.126116	-0.014019	-0.065224
		CHANNELS 3 Zrotation Xrotation Yrotation
		JOINT LeftLeg
		{
			OFFSET	 0.000000	 0.000000	 0.569914
			CHANNELS 3 Zrotation Xrotation Yrotation
			JOINT LeftFoot
			{
				OFFSET	 0.000000	 0.000000	 0.544423
				CHANNELS 3 Zrotation Xrotation Yrotation
				JOINT LeftToeBase
				{
					OFFSET	 0.000000	 0.000000	 0.207117
					CHANNELS 3 Zrotation Xrotation Yrotation
					End Site
					{
						OFFSET	 0.000000	 0.000000	 0.207117
					}
				}
			}
		}
	}
	JOINT RightUpLeg
	{
		OFFSET	-0.124023	-0.008373	-0.065224
		CHANNELS 3 Zrotation Xrotation Yrotation
		JOINT RightLeg
		{
			OFFSET	 0.000000	 0.000000	 0.570047
			CHANNELS 3 Zrotation Xrotation Yrotation
			JOINT RightFoot
			{
				OFFSET	 0.000000	 0.000000	 0.544354
				CHANNELS 3 Zrotation Xrotation Yrotation
				JOINT RightToeBase
				{
					OFFSET	 0.000000	 0.000000	 0.207540
					CHANNELS 3 Zrotation Xrotation Yrotation
					End Site
					{
						OFFSET	 0.000000	 0.000000	 0.207540
					}
				}
			}
		}
	}
	JOINT Spine
	{
		OFFSET	 0.000184	-0.007763	 0.117403
		CHANNELS 3 Zrotation Xrotation Yrotation
		JOINT Spine1
		{
			OFFSET	 0.000000	 0.000000	 0.137269
			CHANNELS 3 Zrotation Xrotation Yrotation
			JOINT Spine2
			{
				OFFSET	 0.000000	 0.000000	 0.156879
				CHANNELS 3 Zrotation Xrotation Yrotation
				JOINT LeftShoulder
				{
					OFFSET	 0.080501	-0.002496	 0.160144
					CHANNELS 3 Zrotation Xrotation Yrotation
					JOINT LeftArm
					{
						OFFSET	 0.000000	 0.000000	 0.164363
						CHANNELS 3 Zrotation Xrotation Yrotation
						JOINT LeftForeArm
						{
							OFFSET	 0.000000	 0.000000	 0.364576
							CHANNELS 3 Zrotation Xrotation Yrotation
							JOINT LeftHand
							{
								OFFSET	 0.000000	 0.000000	 0.360812
								CHANNELS 3 Zrotation Xrotation Yrotation
								JOINT LeftHandIndex1
								{
									OFFSET	 0.000000	 0.000000	 0.086006
									CHANNELS 3 Zrotation Xrotation Yrotation
									JOINT LeftHandIndex2
									{
										OFFSET	 0.000000	 0.000000	 0.047236
										CHANNELS 3 Zrotation Xrotation Yrotation
										JOINT LeftHandIndex3
										{
											OFFSET	-0.004284	-0.000551	 0.038166
											CHANNELS 3 Zrotation Xrotation Yrotation
											End Site
											{
												OFFSET	-0.004284	-0.000551	 0.038166
											}
										}
									}
								}
							}
						}
					}
				}
				JOINT Neck
				{
					OFFSET	 0.000000	 0.000000	 0.176489
					CHANNELS 3 Zrotation Xrotation Yrotation
					JOINT Head
					{
						OFFSET	 0.000000	-0.001747	 0.077940
						CHANNELS 3 Zrotation Xrotation Yrotation
						End Site
						{
							OFFSET	 0.000000	-0.001747	 0.077940
						}
					}
				}
				JOINT RightShoulder
				{
					OFFSET	-0.080363	 0.000306	 0.159706
					CHANNELS 3 Zrotation Xrotation Yrotation
					JOINT RightArm
					{
						OFFSET	 0.000000	 0.000000	 0.164196
						CHANNELS 3 Zrotation Xrotation Yrotation
						JOINT RightForeArm
						{
							OFFSET	 0.000000	 0.000000	 0.365611
							CHANNELS 3 Zrotation Xrotation Yrotation
							JOINT RightHand
							{
								OFFSET	 0.000000	 0.000000	 0.360648
								CHANNELS 3 Zrotation Xrotation Yrotation
								JOINT RightHandIndex1
								{
									OFFSET	 0.000000	 0.000000	 0.069977
									CHANNELS 3 Zrotation Xrotation Yrotation
									JOINT RightHandIndex2
									{
										OFFSET	 0.000000	 0.000000	 0.052305
										CHANNELS 3 Zrotation Xrotation Yrotation
										JOINT RightHandIndex3
										{
											OFFSET	 0.009002	-0.000782	 0.042196
											CHANNELS 3 Zrotation Xrotation Yrotation
											End Site
											{
												OFFSET	 0.009002	-0.000782	 0.042196
											}
										}
									}
								}
							}
						}
					}
				}
			}
		}
	}
}
MOTION
Frames:    9
Frame Time: 0.03333334
 0.000214	 0.044801	 1.273579	-0.067502	 2.818417	 0.664248	 10.901890	-7.316531	 177.431000	 2.225698	-14.651490	 0.668772	-0.114292	 71.439110	 0.019836	-2.385833	 28.452750	 0.000004	-3.450234	-6.550010	-178.029300	-0.761020	-12.710520	 0.966669	 5.562432	 70.283840	 0.734329	 2.384659	 28.388700	-0.000001	-0.181406	 7.450826	 0.081312	 0.382440	-6.551285	 0.134483	-0.673996	 10.210150	 0.383485	-91.082040	 69.195980	-177.628200	-7.143976	 0.773389	-22.705840	 25.463730	-0.122911	-0.673413	-7.421405	-9.357904	-4.215490	-2.027600	 6.559038	 9.033609	-5.188889	 0.308190	 3.541030	-5.234859	 0.342567	 0.430617	 4.554271	 19.333320	-7.177599	-5.789052	-14.183210	 1.845974	 88.895250	 67.869410	 177.127700	 9.811730	 7.696009	 11.074960	-26.684210	-7.041447	 19.774780	 4.407009	-9.158996	 5.823786	 1.803333	 3.979147	-15.098590	 4.898592	 3.004813	-9.310344	 5.224449	 0.395017	 2.014677
 0.000158	 0.045458	 1.273273	-0.061237	 2.951290	 0.675720	 10.928000	-7.614305	 177.444500	 2.200556	-14.894040	 0.673119	 0.052981	 71.504520	-0.134095	-2.385833	 28.452750	 0.000004	-3.501493	-6.843860	-178.063900	-0.751511	-12.951850	 0.986850	 5.511706	 70.370390	 0.787187	 2.384659	 28.388700	-0.000001	-0.323986	 7.582286	 0.083669	 0.371511	-6.955122	 0.125265	-0.650699	 10.753590	 0.395118	-91.046420	 68.961710	-177.550400	-6.947695	 0.667538	-23.095820	 25.296180	-0.121393	-0.709860	-7.070368	-9.545730	-4.270964	-2.027600	 6.559038	 9.033609	-5.188889	 0.308190	 3.541030	-5.234859	 0.342567	 0.430617	 4.631604	 19.944990	-7.374344	-5.756283	-14.590890	 1.826747	 88.846620	 67.547400	 177.034400	 9.701621	 7.638574	 11.357690	-26.628610	-7.078954	 19.963570	 4.047204	-9.231019	 5.714905	 1.803333	 3.979147	-15.098590	 4.898592	 3.004813	-9.310344	 5.224449	 0.395017	 2.014677
-0.000955	 0.055495	 1.268784	 0.100141	 4.925571	 0.873080	 11.073460	-11.854580	 177.623300	 2.269111	-18.065610	 0.821555	 2.155555	 72.561200	-2.432234	-2.385833	 28.452760	 0.000004	-4.201634	-10.928270	-178.637100	-0.785391	-15.972190	 1.202135	 4.444901	 71.367430	 2.104382	 2.384659	 28.388700	-0.000001	-1.642309	 8.732644	 0.075780	 0.351616	-10.976330	 0.001978	-0.882685	 15.534130	 0.591469	-90.824990	 67.067550	-177.182800	-5.021963	 1.604984	-27.132850	 22.869640	-0.086599	-1.115910	-4.548122	-12.263710	-5.518304	-2.027600	 6.559038	 9.033609	-5.188889	 0.308190	 3.541030	-5.234859	 0.342567	 0.430617	 4.671016	 24.933550	-8.743429	-5.222493	-18.385310	 1.644794	 88.419740	 64.146300	 176.408500	 7.639313	 8.365520	 14.161740	-25.263770	-6.948914	 21.554670	 0.536777	-10.431250	 5.067986	 1.803333	 3.979147	-15.098590	 4.898592	 3.004813	-9.310344	 5.224449	 0.395017	 2.014677
-0.001243	 0.058466	 1.267766	 0.145952	 5.497622	 0.934542	 11.033560	-12.955760	 177.666300	 2.229524	-18.720870	 0.849816	 2.795701	 72.740070	-3.125756	-2.385832	 28.452790	-0.000001	-4.408731	-11.961350	-178.805600	-0.931441	-16.534620	 1.201515	 4.152309	 71.517690	 2.605199	 2.384659	 28.388700	-0.000001	-1.931405	 8.937051	 0.048305	 0.352997	-11.840620	 0.003169	-0.999524	 16.442290	 0.618827	-90.829220	 66.514880	-177.282200	-4.484088	 1.850563	-27.920150	 21.889810	-0.073028	-1.216574	-4.415870	-12.818820	-5.977334	-2.027600	 6.559038	 9.033609	-5.188889	 0.308190	 3.541030	-5.234859	 0.342567	 0.430617	 4.524382	 25.518040	-8.779925	-5.143208	-18.887210	 1.542089	 88.403880	 63.324540	 176.494300	 6.812616	 8.544602	 14.680090	-24.713650	-6.766057	 21.809700	-0.175543	-10.625080	 5.137120	 1.803333	 3.979147	-15.098590	 4.898592	 3.004813	-9.310344	 5.224449	 0.395017	 2.014677
-0.001925	 0.068178	 1.264300	 0.343619	 7.287102	 1.065652	 10.935610	-16.585040	 177.896400	 2.209808	-21.115210	 0.946707	 4.989469	 73.327990	-5.486735	-2.385832	 28.452790	-0.000001	-5.022961	-15.285130	-179.295400	-1.250593	-18.438510	 1.233866	 3.164942	 72.001110	 4.113978	 2.384659	 28.388700	-0.000001	-2.796425	 9.407286	-0.045533	 0.389868	-13.981280	 0.041764	-1.352577	 18.640400	 0.736227	-91.069180	 65.289550	-178.095400	-3.039520	 2.951292	-29.557080	 19.413680	-0.031074	-1.511609	-4.179490	-14.035720	-7.283938	-2.027600	 6.559038	 9.033609	-5.188889	 0.308190	 3.541030	-5.234859	 0.342567	 0.430617	 4.074094	 26.703860	-8.805808	-4.938897	-20.036760	 1.292576	 88.593420	 61.544270	 177.177200	 4.270486	 9.537966	 15.250210	-23.180020	-6.459193	 23.219200	-2.093714	-11.112230	 5.346673	 1.803333	 3.979147	-15.098590	 4.898592	 3.004813	-9.310344	 5.224449	 0.395017	 2.014677
-0.002256	 0.079029	 1.260755	 0.631331	 9.226970	 1.104956	 10.718710	-20.318440	 178.272400	 2.154484	-23.264320	 1.016062	 7.419670	 73.526370	-8.102208	-2.385833	 28.452760	 0.000004	-5.628075	-18.806840	-179.742400	-1.412235	-20.242140	 1.293547	 1.911297	 72.302250	 5.759618	 2.384659	 28.388700	-0.000001	-3.655347	 9.640760	-0.138977	 0.489130	-15.741390	 0.123686	-1.714225	 20.171940	 0.915481	-91.673290	 64.759250	-179.729600	-1.783616	 4.659228	-29.955640	 17.684430	 0.010478	-1.799137	-4.055055	-14.709780	-8.454030	-2.027600	 6.559038	 9.033609	-5.188889	 0.308190	 3.541030	-5.234859	 0.342567	 0.430617	 3.605765	 26.949490	-8.737307	-4.779731	-20.607480	 1.116579	 89.155170	 60.814990	 178.548200	 1.618862	 11.174590	 14.434240	-21.832190	-6.383144	 25.321010	-3.696294	-11.542780	 5.526880	 1.803333	 3.979147	-15.098590	 4.898592	 3.004813	-9.310344	 5.224449	 0.395017	 2.014677
-0.002562	 0.091619	 1.257136	 0.827743	 11.369760	 1.051498	 10.591430	-24.167530	 178.814800	 2.192850	-25.042520	 1.105155	 10.007890	 73.553930	-11.019480	-2.385832	 28.452790	-0.000001	-6.012253	-22.610470	 179.873400	-1.569462	-21.892060	 1.335142	 0.136267	 72.501990	 7.990654	 2.384659	 28.388700	-0.000001	-4.519105	 9.851471	-0.127043	 0.636987	-17.086420	 0.100790	-2.020569	 21.163720	 1.343953	-92.426830	 65.044180	 178.267800	-0.787315	 7.439733	-30.146890	 17.232340	 0.049115	-2.090872	-3.420256	-15.163020	-8.901231	-2.027600	 6.559038	 9.033609	-5.188889	 0.308190	 3.541030	-5.234859	 0.342567	 0.430617	 3.207366	 25.594000	-8.972898	-4.652519	-20.235720	 0.889720	 89.899590	 60.381370	-179.731800	-1.067787	 13.420650	 13.732500	-20.131560	-5.945799	 27.118000	-4.435965	-12.185710	 5.663239	 1.803333	 3.979147	-15.098590	 4.898592	 3.004813	-9.310344	 5.224449	 0.395017	 2.014677
-0.004244	 0.109880	 1.253125	 1.722654	 15.012970	 1.086249	 9.568933	-29.894780	 179.291400	 2.776561	-26.643750	 1.433105	 12.262440	 72.821620	-14.233500	-2.385833	 28.452760	 0.000004	-7.235060	-28.112080	 178.908800	-1.283366	-23.502860	 1.542475	-3.164393	 72.035200	 11.546660	 2.384659	 28.388700	-0.000001	-5.753779	 9.616758	-0.190784	 0.430495	-18.084510	-0.000208	-2.458855	 21.231090	 1.437857	-93.232680	 65.251140	 176.084500	 0.908200	 10.367460	-30.803670	 16.606580	 0.105973	-2.440880	-2.609963	-15.206480	-9.281432	-2.027600	 6.559038	 9.033609	-5.188889	 0.308190	 3.541030	-5.234859	 0.342567	 0.430617	 2.814831	 24.663890	-8.686163	-4.605916	-20.276540	 0.551443	 90.796030	 60.454650	-177.680300	-4.586636	 16.368920	 13.999750	-18.286600	-5.264318	 28.746710	-5.154142	-12.543020	 6.023236	 1.803333	 3.979147	-15.098590	 4.898592	 3.004813	-9.310344	 5.224449	 0.395017	 2.014677
-0.006695	 0.126397	 1.249407	 2.812117	 18.425680	 1.017144	 8.203648	-34.904090	 179.495600	 3.447793	-27.645990	 1.795212	 12.783540	 71.317420	-15.754610	-2.385833	 28.452760	 0.000004	-8.641486	-32.929810	 177.920400	-1.234259	-24.830300	 1.644888	-5.560881	 71.301250	 14.400880	 2.384659	 28.388700	-0.000001	-6.932678	 9.517756	-0.275971	 0.069026	-18.054340	 0.003683	-2.836012	 20.613170	 1.225423	-93.829320	 65.547280	 174.401800	 2.247699	 12.331020	-31.796100	 16.039130	 0.166143	-2.752495	-1.991816	-15.195160	-9.555300	-2.027600	 6.559038	 9.033609	-5.188889	 0.308190	 3.541030	-5.234859	 0.342567	 0.430617	 2.511971	 24.156890	-7.977949	-4.683068	-20.552140	 0.075157	 91.529470	 60.885330	-175.945400	-7.566594	 19.001760	 15.293610	-16.945830	-4.753620	 30.280330	-5.640904	-12.623150	 6.381253	 1.803333	 3.979147	-15.098590	 4.898592	 3.004813	-9.310344	 5.224449	 0.395017	 2.014677
